#define Aggregation_width 32
#define Aggregation_height 32
static unsigned char Aggregation_bits[] = {
   0x00, 0x00, 0x00, 0x00, 0x00, 0x00, 0x00, 0x00, 0x00, 0x00, 0x00, 0x00,
   0x00, 0x00, 0x00, 0x00, 0x00, 0x00, 0x00, 0x00, 0x00, 0x00, 0x00, 0x00,
   0x00, 0x00, 0x00, 0x00, 0x00, 0x00, 0x00, 0x00, 0x00, 0x00, 0x00, 0x00,
   0x1c, 0x00, 0x00, 0x00, 0x22, 0x00, 0x00, 0x00, 0x22, 0x00, 0x00, 0x00,
   0x1e, 0x00, 0x00, 0x00, 0x0a, 0x00, 0x00, 0x02, 0x32, 0x00, 0x00, 0x05,
   0x00, 0x00, 0x80, 0x08, 0x00, 0x00, 0x40, 0x10, 0xfe, 0xff, 0x3f, 0x20,
   0x00, 0x00, 0x40, 0x10, 0x00, 0x00, 0x80, 0x08, 0x1c, 0x00, 0x00, 0x05,
   0x22, 0x00, 0x00, 0x02, 0x02, 0x00, 0x00, 0x00, 0x02, 0x00, 0x00, 0x00,
   0x22, 0x00, 0x00, 0x00, 0x1c, 0x00, 0x00, 0x00, 0x00, 0x00, 0x00, 0x00,
   0x00, 0x00, 0x00, 0x00, 0x00, 0x00, 0x00, 0x00, 0x00, 0x00, 0x00, 0x00,
   0x00, 0x00, 0x00, 0x00, 0x00, 0x00, 0x00, 0x00};
