#define AlignRight_width 32
#define AlignRight_height 32
static unsigned char AlignRight_bits[] = {
   0x00, 0x00, 0x00, 0x00, 0x00, 0xe0, 0xff, 0x3f, 0x00, 0x20, 0x00, 0x20,
   0x00, 0x20, 0x00, 0x20, 0x00, 0x20, 0x00, 0x20, 0x00, 0xe0, 0xff, 0x3f,
   0x00, 0x00, 0x00, 0x00, 0x00, 0x00, 0x00, 0x00, 0x00, 0x00, 0x00, 0x00,
   0x00, 0x00, 0x00, 0x07, 0x00, 0x00, 0x80, 0x08, 0x00, 0x00, 0x40, 0x10,
   0x00, 0x00, 0x20, 0x20, 0x00, 0x00, 0x20, 0x20, 0x00, 0x00, 0x20, 0x20,
   0x00, 0x00, 0x40, 0x10, 0x00, 0x00, 0x80, 0x08, 0x00, 0x00, 0x00, 0x07,
   0x00, 0x00, 0x00, 0x00, 0x00, 0x00, 0x00, 0x00, 0x00, 0x00, 0x00, 0x00,
   0x00, 0x00, 0xf8, 0x3f, 0x00, 0x00, 0x08, 0x20, 0x00, 0x00, 0x08, 0x20,
   0x00, 0x00, 0x08, 0x20, 0x00, 0x00, 0x08, 0x20, 0x00, 0x00, 0x08, 0x20,
   0x00, 0x00, 0x08, 0x20, 0x00, 0x00, 0x08, 0x20, 0x00, 0x00, 0x08, 0x20,
   0x00, 0x00, 0xf8, 0x3f, 0x00, 0x00, 0x00, 0x00};
