#define AlignHorizontal_width 32
#define AlignHorizontal_height 32
static unsigned char AlignHorizontal_bits[] = {
   0x00, 0x00, 0x00, 0x00, 0x00, 0x00, 0x00, 0x00, 0x00, 0x00, 0x00, 0x00,
   0x00, 0x00, 0x00, 0x00, 0x00, 0x00, 0x00, 0x00, 0x00, 0x00, 0x00, 0x00,
   0x00, 0x00, 0x00, 0x00, 0x00, 0x00, 0x00, 0x00, 0x00, 0x00, 0x00, 0x7c,
   0x00, 0x00, 0x00, 0x44, 0x00, 0x00, 0x00, 0x44, 0xfe, 0x07, 0x00, 0x44,
   0x02, 0x04, 0x0e, 0x44, 0x02, 0x04, 0x11, 0x44, 0x02, 0x84, 0x20, 0x44,
   0x02, 0x44, 0x40, 0x44, 0x02, 0x44, 0x40, 0x44, 0x02, 0x44, 0x40, 0x44,
   0x02, 0x84, 0x20, 0x44, 0x02, 0x04, 0x11, 0x44, 0x02, 0x04, 0x0e, 0x44,
   0xfe, 0x07, 0x00, 0x44, 0x00, 0x00, 0x00, 0x44, 0x00, 0x00, 0x00, 0x44,
   0x00, 0x00, 0x00, 0x7c, 0x00, 0x00, 0x00, 0x00, 0x00, 0x00, 0x00, 0x00,
   0x00, 0x00, 0x00, 0x00, 0x00, 0x00, 0x00, 0x00, 0x00, 0x00, 0x00, 0x00,
   0x00, 0x00, 0x00, 0x00, 0x00, 0x00, 0x00, 0x00};
