#define BuildingBlock_width 32
#define BuildingBlock_height 32
static unsigned char BuildingBlock_bits[] = {
 0x00,0x00,0x00,0x00,0x00,0x00,0x00,0x00,0x00,0x00,0x00,0x00,0x00,0x00,0x00,
 0x00,0x00,0x00,0x00,0x00,0x00,0x00,0x00,0x00,0x00,0x00,0x00,0x00,0x80,0xff,
 0xff,0x1f,0x80,0x00,0x00,0x10,0x80,0x00,0x00,0x10,0xf8,0x0f,0x00,0x10,0x08,
 0x08,0x00,0x10,0x08,0x08,0x00,0x10,0xf8,0x0f,0x00,0x10,0x80,0x00,0x00,0x10,
 0x80,0x00,0x00,0x10,0xf8,0x0f,0x00,0x10,0x08,0x08,0x00,0x10,0x08,0x08,0x00,
 0x10,0xf8,0x0f,0x00,0x10,0x80,0x00,0x00,0x10,0x80,0x00,0x00,0x10,0x80,0xff,
 0xff,0x1f,0x00,0x00,0x00,0x00,0x00,0x00,0x00,0x00,0x00,0x00,0x00,0x00,0x00,
 0x00,0x00,0x00,0x00,0x00,0x00,0x00,0x00,0x00,0x00,0x00,0x00,0x00,0x00,0x00,
 0x00,0x00,0x00,0x00,0x00,0x00,0x00,0x00};
