#define BullsEye_width 32
#define BullsEye_height 32
static unsigned char BullsEye_bits[] = {
   0x00, 0x00, 0x00, 0x00, 0x00, 0x00, 0x00, 0x00, 0x00, 0x00, 0x00, 0x00,
   0x00, 0x00, 0x00, 0x00, 0x00, 0x00, 0x00, 0x00, 0x00, 0x00, 0x00, 0x00,
   0x00, 0x00, 0x00, 0x00, 0x00, 0x00, 0x00, 0x00, 0x00, 0x00, 0x00, 0x00,
   0x00, 0xe0, 0x00, 0x00, 0x00, 0x18, 0x03, 0x00, 0x00, 0x04, 0x04, 0x00,
   0x00, 0xe2, 0x08, 0x00, 0x00, 0xf2, 0x09, 0x00, 0x00, 0xf9, 0x13, 0x00,
   0x00, 0xf9, 0x13, 0x00, 0x00, 0xf9, 0x13, 0x00, 0x00, 0xf2, 0x09, 0x00,
   0x00, 0xe2, 0x08, 0x00, 0x00, 0x04, 0x04, 0x00, 0x00, 0x18, 0x03, 0x00,
   0x00, 0xe0, 0x00, 0x00, 0x00, 0x00, 0x00, 0x00, 0x00, 0x00, 0x00, 0x00,
   0x00, 0x00, 0x00, 0x00, 0x00, 0x00, 0x00, 0x00, 0x00, 0x00, 0x00, 0x00,
   0x00, 0x00, 0x00, 0x00, 0x00, 0x00, 0x00, 0x00, 0x00, 0x00, 0x00, 0x00,
   0x00, 0x00, 0x00, 0x00, 0x00, 0x00, 0x00, 0x00};
