#define Composition_width 32
#define Composition_height 32
static unsigned char Composition_bits[] = {
   0x00, 0x00, 0x00, 0x00, 0x00, 0x00, 0x00, 0x00, 0x00, 0x00, 0x00, 0x00,
   0x00, 0x00, 0x00, 0x00, 0x00, 0x00, 0x00, 0x00, 0x00, 0x00, 0x00, 0x00,
   0x00, 0x00, 0x00, 0x00, 0x00, 0x00, 0x00, 0x00, 0x00, 0x00, 0x00, 0x00,
   0x1c, 0x00, 0x00, 0x00, 0x22, 0x00, 0x00, 0x00, 0x22, 0x00, 0x00, 0x00,
   0x1e, 0x00, 0x00, 0x00, 0x0a, 0x00, 0x00, 0x02, 0x32, 0x00, 0x00, 0x07,
   0x00, 0x00, 0x80, 0x0f, 0x00, 0x00, 0xc0, 0x1f, 0xfe, 0xff, 0xff, 0x3f,
   0x00, 0x00, 0xc0, 0x1f, 0x00, 0x00, 0x80, 0x0f, 0x1c, 0x00, 0x00, 0x07,
   0x22, 0x00, 0x00, 0x02, 0x02, 0x00, 0x00, 0x00, 0x02, 0x00, 0x00, 0x00,
   0x22, 0x00, 0x00, 0x00, 0x1c, 0x00, 0x00, 0x00, 0x00, 0x00, 0x00, 0x00,
   0x00, 0x00, 0x00, 0x00, 0x00, 0x00, 0x00, 0x00, 0x00, 0x00, 0x00, 0x00,
   0x00, 0x00, 0x00, 0x00, 0x00, 0x00, 0x00, 0x00};
