#define Cube_width 32
#define Cube_height 32
static unsigned char Cube_bits[] = {
 0x00,0x00,0x00,0x00,0x00,0x00,0x00,0x00,0x00,0x00,0x00,0x00,0x00,0x00,0x00,
 0x00,0x00,0x00,0x00,0x00,0x00,0x00,0x00,0x00,0x00,0x00,0x00,0x00,0x80,0xff,
 0xff,0x3f,0x40,0x00,0x00,0x30,0x20,0x00,0x00,0x28,0x10,0x00,0x00,0x24,0xf8,
 0xff,0xff,0x23,0x08,0x00,0x00,0x22,0x08,0x00,0x00,0x22,0x08,0x00,0x00,0x22,
 0x08,0x00,0x00,0x22,0x08,0x00,0x00,0x22,0x08,0x00,0x00,0x22,0x08,0x00,0x00,
 0x22,0x08,0x00,0x00,0x22,0x08,0x00,0x00,0x22,0x08,0x00,0x00,0x12,0x08,0x00,
 0x00,0x0a,0x08,0x00,0x00,0x06,0xf8,0xff,0xff,0x03,0x00,0x00,0x00,0x00,0x00,
 0x00,0x00,0x00,0x00,0x00,0x00,0x00,0x00,0x00,0x00,0x00,0x00,0x00,0x00,0x00,
 0x00,0x00,0x00,0x00,0x00,0x00,0x00,0x00};
