#define Curve_width 32
#define Curve_height 32
static unsigned char Curve_bits[] = {
   0x00, 0x00, 0x00, 0x00, 0x00, 0x00, 0x00, 0x00, 0x00, 0x20, 0x00, 0x00,
   0x00, 0x20, 0x00, 0x00, 0x00, 0x20, 0x00, 0x00, 0x00, 0x20, 0x00, 0x00,
   0x00, 0xe0, 0x03, 0x00, 0x00, 0x00, 0x00, 0x00, 0x00, 0xf0, 0x07, 0x00,
   0x00, 0x18, 0x0c, 0x00, 0x00, 0x04, 0x10, 0x00, 0x00, 0x02, 0x20, 0x00,
   0x00, 0x01, 0x40, 0x00, 0x80, 0x01, 0xc0, 0x00, 0x80, 0x00, 0x80, 0x00,
   0xc0, 0x00, 0x80, 0x01, 0x40, 0x00, 0x00, 0x01, 0x40, 0x00, 0x00, 0x01,
   0x20, 0x00, 0x00, 0x02, 0x30, 0x00, 0x00, 0x06, 0x10, 0x00, 0x00, 0x04,
   0x10, 0x00, 0x00, 0x04, 0x18, 0x00, 0x00, 0x0c, 0x08, 0x00, 0x00, 0x08,
   0x08, 0x00, 0x00, 0x08, 0x08, 0x00, 0x00, 0x08, 0x08, 0x00, 0x00, 0x08,
   0x00, 0x00, 0x00, 0x00, 0x00, 0x00, 0x00, 0x00, 0x00, 0x00, 0x00, 0x00,
   0x00, 0x00, 0x00, 0x00, 0x00, 0x00, 0x00, 0x00};
