#define DashedC1Arrow_width 32
#define DashedC1Arrow_height 32
static unsigned char DashedC1Arrow_bits[] = {
   0x00, 0x00, 0x00, 0x00, 0x00, 0x00, 0x00, 0x00, 0x00, 0x00, 0x00, 0x00,
   0x00, 0x00, 0x00, 0x00, 0x00, 0x00, 0x00, 0x00, 0x00, 0x00, 0x00, 0x00,
   0x00, 0x00, 0x00, 0x00, 0x00, 0x00, 0x00, 0x00, 0x00, 0x40, 0x00, 0x00,
   0x00, 0x40, 0x00, 0x00, 0x00, 0x40, 0x00, 0x00, 0x00, 0x40, 0x00, 0x00,
   0x00, 0x40, 0x00, 0x00, 0x00, 0x40, 0x00, 0x00, 0x00, 0x40, 0x00, 0x00,
   0x00, 0xc0, 0x07, 0x08, 0x00, 0x00, 0x00, 0x18, 0x00, 0x00, 0x00, 0x38,
   0xce, 0x39, 0xe7, 0x7c, 0x00, 0x00, 0x00, 0x38, 0x00, 0x00, 0x00, 0x18,
   0x1c, 0x00, 0x00, 0x08, 0x22, 0x00, 0x00, 0x00, 0x02, 0x00, 0x00, 0x00,
   0x02, 0x00, 0x00, 0x00, 0x22, 0x00, 0x00, 0x00, 0x1c, 0x00, 0x00, 0x00,
   0x00, 0x00, 0x00, 0x00, 0x00, 0x00, 0x00, 0x00, 0x00, 0x00, 0x00, 0x00,
   0x00, 0x00, 0x00, 0x00, 0x00, 0x00, 0x00, 0x00};
