#define DashedTopLabeledCircle_width 32
#define DashedTopLabeledCircle_height 32
static unsigned char DashedTopLabeledCircle_bits[] = {
   0x00, 0x00, 0x00, 0x00, 0x00, 0x00, 0x00, 0x00, 0x00, 0x00, 0x00, 0x00,
   0x00, 0x00, 0x00, 0x00, 0x00, 0x38, 0x03, 0x00, 0x00, 0x00, 0x04, 0x00,
   0x00, 0x11, 0x01, 0x00, 0xc0, 0x30, 0x61, 0x00, 0x00, 0x50, 0x41, 0x00,
   0x20, 0x90, 0x01, 0x00, 0x10, 0x10, 0x01, 0x00, 0x10, 0x00, 0x00, 0x01,
   0x00, 0x00, 0x00, 0x02, 0x00, 0x00, 0x00, 0x02, 0x08, 0x00, 0x00, 0x00,
   0x08, 0x00, 0x00, 0x00, 0x08, 0x00, 0x00, 0x02, 0x00, 0x00, 0x00, 0x02,
   0x00, 0x00, 0x00, 0x02, 0x10, 0x00, 0x00, 0x00, 0x10, 0x00, 0x00, 0x00,
   0x20, 0x00, 0x80, 0x00, 0x00, 0x00, 0x40, 0x00, 0x80, 0x00, 0x40, 0x00,
   0x00, 0x01, 0x00, 0x00, 0x00, 0x02, 0x0c, 0x00, 0x00, 0x70, 0x02, 0x00,
   0x00, 0x00, 0x00, 0x00, 0x00, 0x00, 0x00, 0x00, 0x00, 0x00, 0x00, 0x00,
   0x00, 0x00, 0x00, 0x00, 0x00, 0x00, 0x00, 0x00};
