#define DashedEllipse_width 32
#define DashedEllipse_height 32
static unsigned char DashedEllipse_bits[] = {
   0x00, 0x00, 0x00, 0x00, 0x00, 0x00, 0x00, 0x00, 0x00, 0x00, 0x00, 0x00,
   0x00, 0x00, 0x00, 0x00, 0x00, 0x00, 0x00, 0x00, 0x00, 0x00, 0x00, 0x00,
   0x00, 0x00, 0x00, 0x00, 0x00, 0x00, 0x00, 0x00, 0x00, 0x70, 0x0e, 0x00,
   0x00, 0x07, 0xe0, 0x00, 0x60, 0x00, 0x00, 0x06, 0x10, 0x00, 0x00, 0x08,
   0x00, 0x00, 0x00, 0x00, 0x04, 0x00, 0x00, 0x20, 0x04, 0x00, 0x00, 0x20,
   0x04, 0x00, 0x00, 0x20, 0x00, 0x00, 0x00, 0x00, 0x10, 0x00, 0x00, 0x08,
   0x60, 0x00, 0x00, 0x06, 0x00, 0x07, 0xe0, 0x00, 0x00, 0x70, 0x0e, 0x00,
   0x00, 0x00, 0x00, 0x00, 0x00, 0x00, 0x00, 0x00, 0x00, 0x00, 0x00, 0x00,
   0x00, 0x00, 0x00, 0x00, 0x00, 0x00, 0x00, 0x00, 0x00, 0x00, 0x00, 0x00,
   0x00, 0x00, 0x00, 0x00, 0x00, 0x00, 0x00, 0x00, 0x00, 0x00, 0x00, 0x00,
   0x00, 0x00, 0x00, 0x00, 0x00, 0x00, 0x00, 0x00};
