#define DashedRoundedBox_width 32
#define DashedRoundedBox_height 32
static unsigned char DashedRoundedBox_bits[] = {
   0x00, 0x00, 0x00, 0x00, 0x00, 0x00, 0x00, 0x00, 0x00, 0x00, 0x00, 0x00,
   0x00, 0x00, 0x00, 0x00, 0x00, 0x00, 0x00, 0x00, 0x00, 0x00, 0x00, 0x00,
   0x00, 0x00, 0x00, 0x00, 0x00, 0x00, 0x00, 0x00, 0x80, 0x73, 0xce, 0x01,
   0x40, 0x00, 0x00, 0x04, 0x10, 0x00, 0x00, 0x0c, 0x10, 0x00, 0x00, 0x08,
   0x08, 0x00, 0x00, 0x00, 0x08, 0x00, 0x00, 0x00, 0x00, 0x00, 0x00, 0x10,
   0x00, 0x00, 0x00, 0x10, 0x08, 0x00, 0x00, 0x10, 0x08, 0x00, 0x00, 0x00,
   0x08, 0x00, 0x00, 0x00, 0x00, 0x00, 0x00, 0x10, 0x00, 0x00, 0x00, 0x10,
   0x10, 0x00, 0x00, 0x08, 0x30, 0x00, 0x00, 0x08, 0x20, 0x00, 0x00, 0x02,
   0x00, 0xe7, 0x9c, 0x01, 0x00, 0x00, 0x00, 0x00, 0x00, 0x00, 0x00, 0x00,
   0x00, 0x00, 0x00, 0x00, 0x00, 0x00, 0x00, 0x00, 0x00, 0x00, 0x00, 0x00,
   0x00, 0x00, 0x00, 0x00, 0x00, 0x00, 0x00, 0x00};
