#define Diamond_width 32
#define Diamond_height 32
static unsigned char Diamond_bits[] = {
   0x00, 0x00, 0x00, 0x00, 0x00, 0x00, 0x00, 0x00, 0x00, 0x00, 0x00, 0x00,
   0x00, 0x00, 0x00, 0x00, 0x00, 0x00, 0x00, 0x00, 0x00, 0x00, 0x00, 0x00,
   0x00, 0x00, 0x00, 0x00, 0x00, 0x80, 0x00, 0x00, 0x00, 0x60, 0x03, 0x00,
   0x00, 0x18, 0x0c, 0x00, 0x00, 0x06, 0x30, 0x00, 0x80, 0x01, 0xc0, 0x00,
   0x60, 0x00, 0x00, 0x03, 0x18, 0x00, 0x00, 0x0c, 0x06, 0x00, 0x00, 0x30,
   0x01, 0x00, 0x00, 0x40, 0x06, 0x00, 0x00, 0x30, 0x18, 0x00, 0x00, 0x0c,
   0x60, 0x00, 0x00, 0x03, 0x80, 0x01, 0xc0, 0x00, 0x00, 0x06, 0x30, 0x00,
   0x00, 0x18, 0x0c, 0x00, 0x00, 0x60, 0x03, 0x00, 0x00, 0x80, 0x00, 0x00,
   0x00, 0x00, 0x00, 0x00, 0x00, 0x00, 0x00, 0x00, 0x00, 0x00, 0x00, 0x00,
   0x00, 0x00, 0x00, 0x00, 0x00, 0x00, 0x00, 0x00, 0x00, 0x00, 0x00, 0x00,
   0x00, 0x00, 0x00, 0x00, 0x00, 0x00, 0x00, 0x00};
