#define Disk_width 32
#define Disk_height 32
static unsigned char Disk_bits[] = {
   0x00, 0x00, 0x00, 0x00, 0x00, 0x00, 0x00, 0x00, 0x00, 0x00, 0x00, 0x00,
   0x00, 0x00, 0x00, 0x00, 0x00, 0x00, 0x00, 0x00, 0x00, 0xf8, 0x1f, 0x00,
   0x80, 0x07, 0xe0, 0x01, 0x60, 0x00, 0x00, 0x06, 0x10, 0x00, 0x00, 0x08,
   0x0c, 0x00, 0x00, 0x30, 0x04, 0x00, 0x00, 0x20, 0x0c, 0x00, 0x00, 0x30,
   0x14, 0x00, 0x00, 0x28, 0x64, 0x00, 0x00, 0x26, 0x84, 0x07, 0xe0, 0x21,
   0x04, 0xf8, 0x1f, 0x20, 0x04, 0x00, 0x00, 0x20, 0x04, 0x00, 0x00, 0x20,
   0x04, 0x00, 0x00, 0x20, 0x04, 0x00, 0x00, 0x20, 0x04, 0x00, 0x00, 0x20,
   0x04, 0x00, 0x00, 0x20, 0x04, 0x00, 0x00, 0x20, 0x0c, 0x00, 0x00, 0x30,
   0x10, 0x00, 0x00, 0x08, 0x60, 0x00, 0x00, 0x06, 0x80, 0x07, 0xe0, 0x01,
   0x00, 0xf8, 0x1f, 0x00, 0x00, 0x00, 0x00, 0x00, 0x00, 0x00, 0x00, 0x00,
   0x00, 0x00, 0x00, 0x00, 0x00, 0x00, 0x00, 0x00};
