#define EllipsedBox_width 32
#define EllipsedBox_height 32
static unsigned char EllipsedBox_bits[] = {
   0x00, 0x00, 0x00, 0x00, 0x00, 0x00, 0x00, 0x00, 0x00, 0x00, 0x00, 0x00,
   0x00, 0x00, 0x00, 0x00, 0x00, 0x00, 0x00, 0x00, 0x00, 0x00, 0x00, 0x00,
   0x00, 0x00, 0x00, 0x00, 0x00, 0x00, 0x00, 0x00, 0x00, 0xff, 0xff, 0x00,
   0x80, 0x01, 0x80, 0x01, 0x60, 0x00, 0x00, 0x06, 0x10, 0x00, 0x00, 0x08,
   0x10, 0x00, 0x00, 0x08, 0x08, 0x00, 0x00, 0x10, 0x08, 0x00, 0x00, 0x10,
   0x08, 0x00, 0x00, 0x10, 0x08, 0x00, 0x00, 0x10, 0x08, 0x00, 0x00, 0x10,
   0x08, 0x00, 0x00, 0x10, 0x10, 0x00, 0x00, 0x08, 0x10, 0x00, 0x00, 0x08,
   0x60, 0x00, 0x00, 0x06, 0x80, 0x01, 0x80, 0x01, 0x00, 0xff, 0xff, 0x00,
   0x00, 0x00, 0x00, 0x00, 0x00, 0x00, 0x00, 0x00, 0x00, 0x00, 0x00, 0x00,
   0x00, 0x00, 0x00, 0x00, 0x00, 0x00, 0x00, 0x00, 0x00, 0x00, 0x00, 0x00,
   0x00, 0x00, 0x00, 0x00, 0x00, 0x00, 0x00, 0x00};
