#define EndC1Arrow_width 32
#define EndC1Arrow_height 32
static unsigned char EndC1Arrow_bits[] = {
   0x00, 0x00, 0x00, 0x00, 0x00, 0x00, 0x00, 0x00, 0x00, 0x00, 0x00, 0x00,
   0x00, 0x00, 0x00, 0x00, 0x00, 0x00, 0x00, 0x00, 0x00, 0x00, 0x00, 0x00,
   0x00, 0x00, 0x00, 0x00, 0x00, 0x00, 0x00, 0x00, 0x00, 0x00, 0x00, 0x00,
   0x00, 0x00, 0x00, 0x00, 0x00, 0x00, 0x00, 0x00, 0x00, 0x00, 0x00, 0x00,
   0x00, 0x00, 0x00, 0x00, 0x00, 0x00, 0x00, 0x00, 0x00, 0x00, 0x00, 0x00,
   0x00, 0x00, 0x00, 0x08, 0x00, 0x00, 0x00, 0x18, 0x00, 0x00, 0x00, 0x38,
   0xfe, 0xff, 0xff, 0x7f, 0x00, 0x00, 0x00, 0x38, 0x00, 0x00, 0x00, 0x18,
   0x00, 0x00, 0xc0, 0x09, 0x00, 0x00, 0x20, 0x02, 0x00, 0x00, 0x20, 0x00,
   0x00, 0x00, 0x20, 0x00, 0x00, 0x00, 0x20, 0x02, 0x00, 0x00, 0xc0, 0x01,
   0x00, 0x00, 0x00, 0x00, 0x00, 0x00, 0x00, 0x00, 0x00, 0x00, 0x00, 0x00,
   0x00, 0x00, 0x00, 0x00, 0x00, 0x00, 0x00, 0x00};
