#define FOCBox_width 32
#define FOCBox_height 32
static unsigned char FOCBox_bits[] = {
 0x00,0x00,0x00,0x00,0x00,0x00,0x01,0x00,0x00,0x00,0x01,0x00,0x00,0x00,0x01,
 0x00,0x00,0x00,0x01,0x00,0x00,0x00,0x01,0x00,0x00,0xe0,0x0f,0x00,0x00,0x20,
 0x08,0x00,0x00,0x20,0x08,0x00,0x00,0x20,0x08,0x00,0x00,0x20,0x08,0x00,0x00,
 0x20,0x08,0x00,0x00,0x20,0x08,0x00,0x00,0x20,0x08,0x00,0x00,0x20,0x08,0x00,
 0x00,0x20,0x08,0x00,0x00,0x20,0x08,0x00,0x00,0x20,0x08,0x00,0x00,0x20,0x08,
 0x00,0x00,0x20,0x08,0x00,0x00,0x20,0x08,0x00,0x00,0x20,0x08,0x00,0x00,0x20,
 0x08,0x00,0x00,0x20,0x08,0x00,0x00,0x20,0x08,0x00,0x00,0xe0,0x0f,0x00,0x00,
 0x00,0x01,0x00,0x00,0x00,0x01,0x00,0x00,0x00,0x01,0x00,0x00,0x00,0x01,0x00,
 0x00,0x00,0x01,0x00,0x00,0x00,0x00,0x00};
