#define GDControllerShape_width 32
#define GDControllerShape_height 32
static unsigned char GDControllerShape_bits[] = {
   0x00, 0x00, 0x00, 0x00, 0x00, 0x00, 0x00, 0x00, 0x00, 0x00, 0x02, 0x00,
   0x00, 0x00, 0x01, 0x00, 0x00, 0x80, 0x00, 0x00, 0x00, 0x40, 0x00, 0x00,
   0x00, 0xf8, 0x03, 0x00, 0x00, 0x46, 0x0c, 0x00, 0x00, 0x81, 0x10, 0x00,
   0xc0, 0x00, 0x61, 0x00, 0x40, 0x00, 0x42, 0x00, 0x20, 0x00, 0x80, 0x00,
   0x10, 0x00, 0x00, 0x01, 0x10, 0x00, 0x00, 0x01, 0x08, 0x00, 0x00, 0x02,
   0x08, 0x00, 0x00, 0x02, 0x08, 0x00, 0x00, 0x02, 0x08, 0x00, 0x00, 0x02,
   0x08, 0x00, 0x00, 0x02, 0x08, 0x00, 0x00, 0x02, 0x08, 0x00, 0x00, 0x02,
   0x10, 0x00, 0x00, 0x01, 0x10, 0x00, 0x00, 0x01, 0x20, 0x00, 0x80, 0x00,
   0x40, 0x00, 0x40, 0x00, 0xc0, 0x00, 0x60, 0x00, 0x00, 0x01, 0x10, 0x00,
   0x00, 0x06, 0x0c, 0x00, 0x00, 0xf8, 0x03, 0x00, 0x00, 0x00, 0x00, 0x00,
   0x00, 0x00, 0x00, 0x00, 0x00, 0x00, 0x00, 0x00};
