#define IsaArrow_width 32
#define IsaArrow_height 32
static unsigned char IsaArrow_bits[] = {
  0x00, 0x00, 0x00, 0x00, 0x00, 0x00, 0x00, 0x00, 0x00, 0x00, 0x00, 0x00,
  0x00, 0x00, 0x00, 0x00, 0x00, 0x00, 0x00, 0x00, 0x00, 0x00, 0x00, 0x00,
  0x40, 0x00, 0x00, 0x00, 0x00, 0x00, 0x00, 0x00, 0x40, 0x1c, 0x38, 0x00,
  0x40, 0x02, 0x44, 0x00, 0x40, 0x02, 0x40, 0x00, 0x40, 0x0c, 0x78, 0x00,
  0x40, 0x10, 0x44, 0x00, 0x40, 0x10, 0x44, 0x00, 0x40, 0x0e, 0xb8, 0x00,
  0x00, 0xe0, 0x03, 0x08, 0x00, 0x00, 0x00, 0x18, 0x00, 0x00, 0x00, 0x38,
  0xfe, 0xff, 0xff, 0x7f, 0x00, 0x00, 0x00, 0x38, 0x00, 0x00, 0x00, 0x18,
  0x00, 0x00, 0x00, 0x08, 0x00, 0x00, 0x00, 0x00, 0x00, 0x00, 0x00, 0x00,
  0x00, 0x00, 0x00, 0x00, 0x00, 0x00, 0x00, 0x00, 0x00, 0x00, 0x00, 0x00,
  0x00, 0x00, 0x00, 0x00, 0x00, 0x00, 0x00, 0x00, 0x00, 0x00, 0x00, 0x00,
  0x00, 0x00, 0x00, 0x00, 0x00, 0x00, 0x00, 0x00, };
