#define LeftLineCircle_width 32
#define LeftLineCircle_height 32
static unsigned char LeftLineCircle_bits[] = {
   0x00, 0x00, 0x00, 0x00, 0x00, 0x00, 0x00, 0x00, 0x00, 0x00, 0x00, 0x00,
   0x00, 0x00, 0x00, 0x00, 0x00, 0xf8, 0x03, 0x00, 0x00, 0x06, 0x0c, 0x00,
   0x00, 0x01, 0x10, 0x00, 0x80, 0x00, 0x60, 0x00, 0xc0, 0x00, 0x40, 0x00,
   0xa0, 0x00, 0x80, 0x00, 0x90, 0x00, 0x00, 0x01, 0x90, 0x00, 0x00, 0x01,
   0x88, 0x00, 0x00, 0x02, 0x88, 0x00, 0x00, 0x02, 0x88, 0x00, 0x00, 0x02,
   0x88, 0x00, 0x00, 0x02, 0x88, 0x00, 0x00, 0x02, 0x88, 0x00, 0x00, 0x02,
   0x88, 0x00, 0x00, 0x02, 0x90, 0x00, 0x00, 0x01, 0x90, 0x00, 0x00, 0x01,
   0xa0, 0x00, 0x80, 0x00, 0xc0, 0x00, 0x40, 0x00, 0x80, 0x00, 0x60, 0x00,
   0x00, 0x01, 0x10, 0x00, 0x00, 0x06, 0x0c, 0x00, 0x00, 0xf8, 0x03, 0x00,
   0x00, 0x00, 0x00, 0x00, 0x00, 0x00, 0x00, 0x00, 0x00, 0x00, 0x00, 0x00,
   0x00, 0x00, 0x00, 0x00, 0x00, 0x00, 0x00, 0x00};
