#define MiniArrowEllipse_width 32
#define MiniArrowEllipse_height 32
static unsigned char MiniArrowEllipse_bits[] = {
   0x00, 0x00, 0x00, 0x00, 0x00, 0x40, 0x00, 0x00, 0x00, 0x40, 0x00, 0x00,
   0x00, 0x40, 0x00, 0x00, 0x00, 0x40, 0x00, 0x00, 0x00, 0x40, 0x00, 0x00,
   0x00, 0xf8, 0x03, 0x00, 0x00, 0xf0, 0x01, 0x00, 0x00, 0xe0, 0x00, 0x00,
   0x00, 0x40, 0x00, 0x00, 0x00, 0xf0, 0x01, 0x00, 0x00, 0x08, 0x02, 0x00,
   0x00, 0x04, 0x04, 0x00, 0x00, 0x02, 0x08, 0x00, 0x00, 0x02, 0x08, 0x00,
   0x00, 0x02, 0x08, 0x00, 0x00, 0x02, 0x08, 0x00, 0x00, 0x02, 0x08, 0x00,
   0x00, 0x04, 0x04, 0x00, 0x00, 0x08, 0x02, 0x00, 0x00, 0xf0, 0x01, 0x00,
   0x00, 0x00, 0x00, 0x00, 0x00, 0x00, 0x00, 0x00, 0x00, 0x00, 0x00, 0x00,
   0x00, 0x00, 0x00, 0x00, 0x00, 0x00, 0x00, 0x00, 0x00, 0x00, 0x00, 0x00,
   0x00, 0x00, 0x00, 0x00, 0x00, 0x00, 0x00, 0x00, 0x00, 0x00, 0x00, 0x00,
   0x00, 0x00, 0x00, 0x00, 0x00, 0x00, 0x00, 0x00};
