#define NoteBox_width 32
#define NoteBox_height 32
static unsigned char NoteBox_bits[] = {
 0x00,0x00,0x00,0x00,0x00,0x00,0x00,0x00,0x00,0x00,0x00,0x00,0x00,0x00,0x00,
 0x00,0x00,0x00,0x00,0x00,0x00,0x00,0x00,0x00,0x00,0x00,0x00,0x00,0x00,0x00,
 0x00,0x00,0xf8,0xff,0x3f,0x00,0x08,0x00,0x60,0x00,0x08,0x00,0xa0,0x00,0x08,
 0x00,0x20,0x01,0x08,0x00,0x20,0x02,0x08,0x00,0x20,0x04,0x08,0x00,0x20,0x08,
 0x08,0x00,0xe0,0x1f,0x08,0x00,0x00,0x10,0x08,0x00,0x00,0x10,0x08,0x00,0x00,
 0x10,0x08,0x00,0x00,0x10,0x08,0x00,0x00,0x10,0x08,0x00,0x00,0x10,0x08,0x00,
 0x00,0x10,0x08,0x00,0x00,0x10,0xf8,0xff,0xff,0x1f,0x00,0x00,0x00,0x00,0x00,
 0x00,0x00,0x00,0x00,0x00,0x00,0x00,0x00,0x00,0x00,0x00,0x00,0x00,0x00,0x00,
 0x00,0x00,0x00,0x00,0x00,0x00,0x00,0x00};
