#define R2Line_width 32
#define R2Line_height 32
static unsigned char R2Line_bits[] = {
 0x00,0x00,0x00,0x00,0x00,0x00,0x00,0x00,0x00,0x00,0x00,0x00,0x00,0x00,0x00,
 0x00,0x00,0x00,0x00,0x00,0x00,0x20,0x00,0x00,0x00,0x20,0x00,0x00,0x00,0x20,
 0x00,0x00,0x1c,0x20,0x00,0x38,0x22,0x20,0x00,0x44,0x22,0x20,0x00,0x44,0x1e,
 0x20,0x00,0x3c,0x0a,0xe0,0x03,0x14,0x32,0x00,0x00,0x64,0x00,0xf8,0x0f,0x00,
 0x00,0x00,0x00,0x00,0xfe,0xff,0xff,0x7f,0x00,0x00,0x00,0x00,0x00,0x00,0x00,
 0x00,0x00,0x00,0x00,0x00,0x00,0x00,0x00,0x00,0x00,0x00,0x00,0x00,0x00,0x00,
 0x00,0x00,0x00,0x00,0x00,0x00,0x00,0x00,0x00,0x00,0x00,0x00,0x00,0x00,0x00,
 0x00,0x00,0x00,0x00,0x00,0x00,0x00,0x00,0x00,0x00,0x00,0x00,0x00,0x00,0x00,
 0x00,0x00,0x00,0x00,0x00,0x00,0x00,0x00};
