#define SideLeft_width 32
#define SideLeft_height 32
static unsigned char SideLeft_bits[] = {
   0x00, 0x00, 0x00, 0x00, 0x00, 0x00, 0x00, 0x00, 0x00, 0x00, 0x00, 0x00,
   0x00, 0x00, 0x00, 0x00, 0x00, 0x00, 0x00, 0x00, 0x00, 0x00, 0x00, 0x00,
   0x00, 0x00, 0x00, 0x00, 0x00, 0x00, 0x00, 0x00, 0xf8, 0xff, 0xff, 0x1f,
   0x38, 0x00, 0x00, 0x10, 0x38, 0x00, 0x00, 0x10, 0x38, 0x00, 0x00, 0x10,
   0x38, 0x00, 0x00, 0x10, 0x38, 0x00, 0x00, 0x10, 0x38, 0x00, 0x00, 0x10,
   0x38, 0x00, 0x00, 0x10, 0x38, 0x00, 0x00, 0x10, 0x38, 0x00, 0x00, 0x10,
   0x38, 0x00, 0x00, 0x10, 0x38, 0x00, 0x00, 0x10, 0x38, 0x00, 0x00, 0x10,
   0x38, 0x00, 0x00, 0x10, 0x38, 0x00, 0x00, 0x10, 0x38, 0x00, 0x00, 0x10,
   0xf8, 0xff, 0xff, 0x1f, 0x00, 0x00, 0x00, 0x00, 0x00, 0x00, 0x00, 0x00,
   0x00, 0x00, 0x00, 0x00, 0x00, 0x00, 0x00, 0x00, 0x00, 0x00, 0x00, 0x00,
   0x00, 0x00, 0x00, 0x00, 0x00, 0x00, 0x00, 0x00};
