#define StickMan_width 32
#define StickMan_height 32
static unsigned char StickMan_bits[] = {
 0x00,0x00,0x00,0x00,0x00,0x00,0x00,0x00,0x00,0x00,0x00,0x00,0x00,0x00,0x00,
 0x00,0x00,0x00,0x00,0x00,0x00,0x00,0x00,0x00,0x00,0x80,0x03,0x00,0x00,0x40,
 0x04,0x00,0x00,0x20,0x08,0x00,0x00,0x20,0x08,0x00,0x00,0x20,0x08,0x00,0x00,
 0x40,0x04,0x00,0x00,0x80,0x03,0x00,0x00,0x00,0x01,0x00,0x00,0x00,0x01,0x00,
 0x00,0x00,0x01,0x00,0x00,0xe0,0x0f,0x00,0x00,0x00,0x01,0x00,0x00,0x00,0x01,
 0x00,0x00,0x00,0x01,0x00,0x00,0x00,0x01,0x00,0x00,0x00,0x01,0x00,0x00,0x00,
 0x01,0x00,0x00,0x80,0x02,0x00,0x00,0x40,0x04,0x00,0x00,0x20,0x08,0x00,0x00,
 0x10,0x10,0x00,0x00,0x00,0x00,0x00,0x00,0x00,0x00,0x00,0x00,0x00,0x00,0x00,
 0x00,0x00,0x00,0x00,0x00,0x00,0x00,0x00};
