#define SubFolder_width 32
#define SubFolder_height 32
static unsigned char SubFolder_bits[] = {
 0x00,0x00,0x00,0x00,0x00,0x00,0x00,0x00,0x00,0x00,0x00,0x00,0x00,0x00,0x00,
 0x00,0x00,0x00,0x00,0x00,0x00,0x00,0x00,0x00,0x00,0x00,0x00,0x00,0xf8,0x3f,
 0x00,0x00,0x08,0x20,0x00,0x00,0x08,0x24,0x00,0x00,0x08,0x2e,0x00,0x00,0x08,
 0x2a,0x00,0x00,0x08,0x20,0x00,0x00,0xf8,0xff,0xff,0x1f,0x08,0x00,0x00,0x10,
 0x08,0x00,0x00,0x10,0x08,0x00,0x00,0x10,0x08,0x00,0x00,0x10,0x08,0x00,0x00,
 0x10,0x08,0x00,0x00,0x10,0x08,0x00,0x00,0x10,0x08,0x00,0x00,0x10,0x08,0x00,
 0x00,0x10,0x08,0x00,0x00,0x10,0xf8,0xff,0xff,0x1f,0x00,0x00,0x00,0x00,0x00,
 0x00,0x00,0x00,0x00,0x00,0x00,0x00,0x00,0x00,0x00,0x00,0x00,0x00,0x00,0x00,
 0x00,0x00,0x00,0x00,0x00,0x00,0x00,0x00};
