#define Triangle_width 32
#define Triangle_height 32
static unsigned char Triangle_bits[] = {
   0x00, 0x00, 0x00, 0x00, 0x00, 0x00, 0x00, 0x00, 0x00, 0x00, 0x00, 0x00,
   0x00, 0x00, 0x00, 0x00, 0x00, 0x00, 0x00, 0x00, 0x00, 0x00, 0x00, 0x00,
   0x00, 0x00, 0x00, 0x00, 0x00, 0x80, 0x00, 0x00, 0x00, 0x40, 0x01, 0x00,
   0x00, 0x40, 0x01, 0x00, 0x00, 0x20, 0x02, 0x00, 0x00, 0x20, 0x02, 0x00,
   0x00, 0x10, 0x04, 0x00, 0x00, 0x10, 0x04, 0x00, 0x00, 0x08, 0x08, 0x00,
   0x00, 0x08, 0x08, 0x00, 0x00, 0x04, 0x10, 0x00, 0x00, 0x04, 0x10, 0x00,
   0x00, 0x02, 0x20, 0x00, 0x00, 0x02, 0x20, 0x00, 0x00, 0x01, 0x40, 0x00,
   0x00, 0x01, 0x40, 0x00, 0x80, 0x00, 0x80, 0x00, 0x80, 0x00, 0x80, 0x00,
   0x40, 0x00, 0x00, 0x01, 0xc0, 0xff, 0xff, 0x01, 0x00, 0x00, 0x00, 0x00,
   0x00, 0x00, 0x00, 0x00, 0x00, 0x00, 0x00, 0x00, 0x00, 0x00, 0x00, 0x00,
   0x00, 0x00, 0x00, 0x00, 0x00, 0x00, 0x00, 0x00};
