#define VerticalBar_width 32
#define VerticalBar_height 32
static unsigned char VerticalBar_bits[] = {
   0x00, 0x00, 0x00, 0x00, 0x00, 0x10, 0x20, 0x00, 0x00, 0x10, 0x20, 0x00,
   0x00, 0x10, 0x20, 0x00, 0x00, 0x10, 0x20, 0x00, 0x00, 0x10, 0x20, 0x00,
   0x00, 0x10, 0x20, 0x00, 0x00, 0x10, 0x20, 0x00, 0x00, 0x10, 0x20, 0x00,
   0x00, 0x10, 0x20, 0x00, 0x00, 0x10, 0x20, 0x00, 0x00, 0x10, 0x20, 0x00,
   0x00, 0x10, 0x20, 0x00, 0x00, 0x10, 0x20, 0x00, 0x00, 0x10, 0x20, 0x00,
   0x00, 0x10, 0x20, 0x00, 0x00, 0x10, 0x20, 0x00, 0x00, 0x10, 0x20, 0x00,
   0x00, 0x10, 0x20, 0x00, 0x00, 0x10, 0x20, 0x00, 0x00, 0x10, 0x20, 0x00,
   0x00, 0x10, 0x20, 0x00, 0x00, 0x10, 0x20, 0x00, 0x00, 0x10, 0x20, 0x00,
   0x00, 0x10, 0x20, 0x00, 0x00, 0x10, 0x20, 0x00, 0x00, 0x10, 0x20, 0x00,
   0x00, 0x10, 0x20, 0x00, 0x00, 0x10, 0x20, 0x00, 0x00, 0x10, 0x20, 0x00,
   0x00, 0x10, 0x20, 0x00, 0x00, 0x00, 0x00, 0x00};
